<svg xmlns="http://www.w3.org/2000/svg" viewBox="0 0 418.88 281.81"><defs><style>.cls-1{fill:#41479b;}.cls-2{fill:#fff;}.cls-3{fill:#ff4b55;}</style></defs><title>en</title><g id="Calque_4" data-name="Calque 4"><rect class="cls-1" x="0.13" y="0.19" width="418.75" height="281.43" rx="25"/></g><g id="Calque_5" data-name="Calque 5"><rect class="cls-2" x="0.13" y="107.41" width="418.75" height="75.65"/><path class="cls-2" d="M488.33,253.55,102.6,503.14v7a25,25,0,0,0,24.81,25l24.62.19L521.35,291.7V278.64a25,25,0,0,0-24.71-25Z" transform="translate(-102.47 -253.55)"/><path class="cls-2" d="M138.17,253.55,520.54,510.17l.81.72c0,13.77-11.23,24.39-25,24.28l-22.08.19L102.6,292l-.13-13.5c0-13.81,10.51-24.8,24.32-24.8Z" transform="translate(-102.47 -253.55)"/><rect class="cls-2" x="168.39" y="0.38" width="77.11" height="281.11"/></g><g id="Calque_6" data-name="Calque 6"><path class="cls-3" d="M104.17,518.92h0A20.29,20.29,0,0,0,120,534.12l1.65.33L520.94,274.23l0-1.35a17.68,17.68,0,0,0-17.68-18.1h0Z" transform="translate(-102.47 -253.55)"/><path class="cls-3" d="M502.33,534.45l-399-262.58h0a17.69,17.69,0,0,1,11.49-15.25l1.39-.51L518.69,522h0a19,19,0,0,1-14.64,12.19Z" transform="translate(-102.47 -253.55)"/><rect class="cls-3" x="0.13" y="126.1" width="418.75" height="39.19"/><rect class="cls-3" x="187.18" y="0.38" width="40.56" height="280.52"/></g></svg>