<svg id="Calque_2" data-name="Calque 2" xmlns="http://www.w3.org/2000/svg" viewBox="0 0 418.75 281.81"><defs><style>.cls-1{fill:#41479b;}.cls-2{fill:#fff;}.cls-3{fill:#ff4b55;}</style></defs><title>fr</title><path class="cls-1" d="M25,0H139.58a0,0,0,0,1,0,0V281.43a0,0,0,0,1,0,0H25a25,25,0,0,1-25-25V25A25,25,0,0,1,25,0Z"/><rect class="cls-2" x="139.58" width="139.58" height="281.43"/><path class="cls-3" d="M279.16.38H393.75a25,25,0,0,1,25,25V256.81a25,25,0,0,1-25,25H279.16a0,0,0,0,1,0,0V.38A0,0,0,0,1,279.16.38Z"/></svg>